<svg width="320" height="320" viewBox="0 0 320 320" fill="none" xmlns="http://www.w3.org/2000/svg">
<g clip-path="url(#clip0_626_8)">
<path d="M159.793 179.894C151.415 179.894 143.896 174.923 140.69 167.228L102.037 75H124.66L159.925 159.368L195.157 75H217.78L178.896 167.261C175.674 174.923 168.171 179.894 159.793 179.894Z" fill="black"/>
<path d="M210.228 223.968C201.883 223.968 194.397 219.031 191.158 211.402C187.902 203.706 189.588 194.921 195.471 188.96L265.869 117.704L274.66 138.429L210.211 203.541L302.076 203.029L310.867 223.754L210.244 224.002L210.211 223.968H210.228Z" fill="black"/>
<path d="M9 223.72L17.7915 202.996L109.655 203.508L45.2234 138.379L54.0149 117.654L124.413 188.91C130.296 194.855 131.998 203.673 128.725 211.352C125.487 218.998 117.968 223.918 109.655 223.918L9.03305 223.688L9 223.72Z" fill="black"/>
</g>
<defs>
<clipPath id="clip0_626_8">
<rect width="302" height="149" fill="white" transform="translate(9 75)"/>
</clipPath>
</defs>
</svg>
